<?xml version="1.0" encoding="utf-8"?>
<!-- Generator: Adobe Illustrator 26.2.1, SVG Export Plug-In . SVG Version: 6.00 Build 0)  -->
<svg version="1.1" id="Layer_1" xmlns="http://www.w3.org/2000/svg" xmlns:xlink="http://www.w3.org/1999/xlink" x="0px" y="0px"
	 width="512px" height="512px" viewBox="0 0 512 512" style="enable-background:new 0 0 512 512;" xml:space="preserve">
<style type="text/css">
	.st0{fill:#302A22;}
	.st1{fill:#BA973A;}
	.st2{fill:#FFF6E3;}
	.st3{fill:#3A2B08;}
	.st4{fill:#FF4300;}
	.st5{fill:#FFFFFF;}
</style>
<g>
	<g>
		<circle class="st0" cx="256" cy="256" r="256"/>
		<g>
			<path class="st1" d="M453.236,336.888c-5.778,59.19-63.439,84.912-111.274,119.14c-25.418,18.192-54.854,30.367-85.949,30.371
				c-31.099,0.005-60.535-12.17-85.958-30.358c-47.84-34.219-105.505-59.932-111.288-119.122
				c-4.069-41.615,6.055-81.53,19.003-112.731C58.086,166.433,61.966,37.211,82.448,26.483
				c13.829-7.239,76.751,32.242,120.748,79.709c17.013-2.235,34.883-3.829,52.785-3.834c17.907,0,35.777,1.594,52.789,3.825
				c43.993-47.472,106.91-86.963,120.739-79.723c20.483,10.723,24.381,139.932,4.705,197.698
				C447.168,255.354,457.296,295.269,453.236,336.888z"/>
		</g>
		<g>
			<g>
				<path class="st2" d="M165.052,115.704c-26.587,11.807-46.097,33.658-62.378,60.067c-3.524,5.716-12.336,3.51-12.768-3.191
					c-2.953-45.82,2.038-95.771,13.213-101.625c7.851-4.108,35.473,10.606,63.421,33.072
					C170.552,107.252,169.757,113.615,165.052,115.704z"/>
			</g>
			<g>
				<path class="st2" d="M409.303,175.74c-16.286-26.403-35.8-48.25-62.387-60.051c-4.705-2.088-5.501-8.452-1.49-11.677
					c27.944-22.47,55.561-37.188,63.412-33.079c11.175,5.851,16.176,55.793,13.231,101.614
					C421.639,179.247,412.828,181.454,409.303,175.74z"/>
			</g>
		</g>
		<path class="st2" d="M453.715,330.3c-3.744-18.507-11.721-33.888-26.881-40.072c-50.602-20.645-109.653,31.394-151.947,30.571
			c-0.858-0.017-1.722-0.056-2.593-0.118c-10.842-0.763-21.747-0.763-32.589,0.003c-0.871,0.062-1.735,0.101-2.593,0.118
			c-42.294,0.829-101.352-51.2-151.951-30.548c-15.159,6.187-23.133,21.569-26.875,40.077c0.138,2.194,0.265,4.386,0.48,6.591
			c5.785,59.188,62.432,86.015,110.273,120.237c25.422,18.185,55.876,29.245,86.973,29.242c31.097-0.002,60.533-12.181,85.952-30.37
			c47.836-34.229,105.495-59.951,111.272-119.14C453.451,334.686,453.578,332.494,453.715,330.3z"/>
		<path class="st3" d="M346.254,353.48c-2.419-2.299-6.208-2.151-8.452,0.305c-8.787,9.616-35.581,32.487-53.827,22.982
			c-13.459-7.007-18.697-19.902-20.724-29.374c8.433-1.892,15.951-6.202,22.679-12.627c6.373-6.087,9.564-14.972,7.771-23.681
			c-0.051-0.241-0.101-0.481-0.156-0.722c-2.216-9.764-10.452-17.002-20.191-18.496c-5.729-0.883-11.422-1.309-17.359-1.309
			s-11.634,0.43-17.363,1.309c-9.739,1.499-17.975,8.737-20.186,18.505c-0.055,0.236-0.106,0.476-0.156,0.717
			c-1.789,8.709,1.398,17.594,7.776,23.681c6.727,6.424,14.25,10.735,22.683,12.622c-2.028,9.477-7.265,22.372-20.72,29.379
			c-18.191,9.477-45.026-13.371-53.832-22.973c-2.253-2.456-6.033-2.595-8.452-0.301c-2.414,2.289-2.552,6.138-0.303,8.598
			c0.791,0.86,10.769,11.632,24.343,19.833c9.693,21.845,34.207,68.475,67.153,69.886c31.089,1.346,60.821-53.18,70.804-73.489
			c10.686-7.456,18.14-15.503,18.816-16.243C348.806,359.623,348.673,355.77,346.254,353.48z M257.323,429.906
			c-19.023-0.819-34.248-21.96-43.449-38.921c1.485,0.176,2.98,0.268,4.474,0.268c1.283,0,2.57-0.069,3.853-0.213
			c3.807-0.426,7.592-1.508,11.275-3.427c11.56-6.022,17.179-6.096,23.387-6.096c6.819,0,10.102,0.069,21.662,6.091
			c3.651,1.901,7.399,2.983,11.174,3.413c1.32,0.153,2.639,0.227,3.959,0.227c2.708,0,5.412-0.305,8.088-0.851
			C291.351,408.076,274.622,430.656,257.323,429.906z"/>
		<path class="st4" d="M301.747,390.398c-10.397,17.677-27.125,40.257-44.424,39.508c-19.023-0.819-34.248-21.96-43.449-38.921
			c1.485,0.176,2.98,0.268,4.474,0.268c5.095,0,10.204-1.073,15.128-3.64c11.56-6.022,17.179-6.096,23.387-6.096
			c6.819,0,10.102,0.069,21.662,6.091c4.929,2.567,10.033,3.64,15.133,3.64C296.367,391.249,299.071,390.944,301.747,390.398z"/>
		<g>
			<path class="st5" d="M289.7,391.023c-1.78,3.806-4.971,9.801-7.408,9.963c-2.364,0.157-5.224-5.379-6.902-9.167
				c-13.087,1.563-26.045,1.549-38.883,0.009c-1.678,3.788-4.538,9.32-6.897,9.162c-2.437-0.162-5.619-6.138-7.408-9.949
				c3.807-0.426,7.592-1.508,11.275-3.427c11.56-6.022,17.179-6.096,23.387-6.096c6.819,0,10.102,0.069,21.662,6.091
				C282.177,389.51,285.925,390.593,289.7,391.023z"/>
		</g>
		<g>
			<g>
				<path class="st3" d="M351.222,248.947c0.001,17.225-26.65,21.944-41.79,21.945c-15.14,0.001-27.414-4.187-27.415-21.412
					c-0.001-17.226,19.46-31.191,34.6-31.192C331.756,218.287,351.22,231.722,351.222,248.947z"/>
				<path class="st5" d="M322.278,225.647c-2.84-0.155-5.226,2.159-5.091,5.033c0.202,4.32,1.993,10.413,10.07,12.37
					c3.923,0.951,7.154,1.326,9.753,1.388c4.158,0.098,6.339-4.952,3.552-8.077C336.345,231.632,329.827,226.059,322.278,225.647z"
					/>
			</g>
			<g>
				<path class="st3" d="M153.889,248.963c0.001,17.225,26.653,21.94,41.793,21.939c15.14-0.001,27.413-4.191,27.412-21.417
					c-0.001-17.225-19.465-31.188-34.605-31.187C173.349,218.299,153.887,231.737,153.889,248.963z"/>
				<path class="st5" d="M194.474,225.657c-2.839-0.155-5.225,2.159-5.091,5.033c0.202,4.32,1.993,10.413,10.07,12.37
					c3.923,0.951,7.154,1.326,9.753,1.388c4.158,0.098,6.339-4.952,3.552-8.077C208.541,231.642,202.023,226.069,194.474,225.657z"
					/>
			</g>
			<path class="st2" d="M223.039,188.966c-0.353,3.174-2.349,5.64-2.96,6.345c-3.622,4.182-9.095,4.849-12.124,5.219
				c-18.222,2.226-27.337,3.339-27.527,3.351c-24.212,1.615-32.033,5.203-37.43-0.507c-0.574-0.608-2.819-3.05-3.049-6.559
				c-0.921-14.047,31.791-24.574,33.195-25.013c9.546-2.987,22.832-7.143,35.343-0.85
				C214.568,174.012,223.896,181.264,223.039,188.966z"/>
			<path class="st2" d="M282.085,186.776c0.392,3.285,2.4,5.875,3.014,6.617c3.64,4.399,9.066,5.212,12.069,5.662
				c18.064,2.711,27.1,4.067,27.288,4.084c23.984,2.217,31.773,6.098,37.038,0.327c0.56-0.614,2.749-3.084,2.93-6.701
				c0.723-14.478-31.793-26.087-33.189-26.572c-9.488-3.299-22.693-7.892-34.991-1.68
				C290.268,171.532,281.134,178.806,282.085,186.776z"/>
		</g>
	</g>
</g>
<g>
</g>
<g>
</g>
<g>
</g>
<g>
</g>
<g>
</g>
</svg>
