<?xml version="1.0" encoding="utf-8"?>
<!-- Generator: Adobe Illustrator 26.2.1, SVG Export Plug-In . SVG Version: 6.00 Build 0)  -->
<svg version="1.1" id="Layer_1" xmlns="http://www.w3.org/2000/svg" xmlns:xlink="http://www.w3.org/1999/xlink" x="0px" y="0px"
	 width="512px" height="512px" viewBox="0 0 512 512" style="enable-background:new 0 0 512 512;" xml:space="preserve">
<style type="text/css">
	.st0{fill:#1D1C23;}
	.st1{fill:#009B6C;}
	.st2{fill:#FFFFFF;}
	.st3{fill:#E24D4D;}
</style>
<g>
	<circle class="st0" cx="256" cy="256" r="256"/>
	<path class="st1" d="M421,290.8c0,71.9-73.9,130.2-165,130.2c-91.1,0-165-58.3-165-130.2c0-28.3,11.5-54.5,30.9-75.9
		c2.2-2.4,2.3-6.1,0.2-8.7c-10.3-12.2-16.4-28.2-16.4-45.7c0.1-38.5,30.8-69.9,68-69.6c36.9,0.4,66.7,31.4,66.7,69.7
		c0,0.2,0,0.4,0,0.6c5.1-0.4,10.3-0.6,15.6-0.6c5.3,0,10.5,0.2,15.7,0.6c0-0.2,0-0.4,0-0.6c0-38.3,29.8-69.3,66.7-69.7
		c37.2-0.3,67.9,31.1,68,69.6c0,17.5-6.2,33.5-16.4,45.7c-2.1,2.5-2,6.2,0.2,8.7C409.5,236.3,421,262.5,421,290.8z"/>
	<path d="M314.4,361.1c-17.1,10.1-37.1,17.2-58.4,17.1c-21.2,0-41.2-7-58.3-17.2c-35-20.7-57.8-54.4-54.1-67.3
		c0.1-0.5,0.3-0.9,0.5-1.4c5.8-11.4,36.6,4.9,111.8,5c75.2,0.1,106.2-16.3,111.9-4.8c0.2,0.4,0.3,0.8,0.5,1.2
		C372.3,306.6,349.5,340.4,314.4,361.1z"/>
	<ellipse class="st2" cx="175.9" cy="164" rx="41.4" ry="42.8"/>
	<ellipse class="st2" cx="336.1" cy="164" rx="41.4" ry="42.8"/>
	<ellipse cx="240.1" cy="256" rx="9" ry="12.9"/>
	<ellipse cx="271.9" cy="256" rx="9" ry="12.9"/>
	<path class="st3" d="M314.4,361.1c-17.1,10.1-37.1,17.2-58.4,17.1c-21.2,0-41.2-7-58.3-17.2c10.3-8.2,32.6-13.9,58.3-13.9
		C281.8,347.2,304.1,352.9,314.4,361.1z"/>
	<path class="st2" d="M368.3,293.8c-12.9,16.3-58.3,28.4-112.3,28.4c-54.1,0-99.6-12.1-112.4-28.4c0.1-0.5,0.3-0.9,0.5-1.4
		c5.8-11.4,36.6,4.9,111.8,5c75.2,0.1,106.2-16.3,111.9-4.8C368.1,293,368.2,293.4,368.3,293.8z"/>
	<ellipse cx="175.9" cy="164" rx="18.7" ry="19.3"/>
	<ellipse cx="336.1" cy="164" rx="18.7" ry="19.3"/>
</g>
</svg>
