<?xml version="1.0" encoding="utf-8"?>
<!-- Generator: Adobe Illustrator 26.2.1, SVG Export Plug-In . SVG Version: 6.00 Build 0)  -->
<svg version="1.1" id="Layer_1" xmlns="http://www.w3.org/2000/svg" xmlns:xlink="http://www.w3.org/1999/xlink" x="0px" y="0px"
	 width="3500px" height="1000px" viewBox="0 0 3500 1000" style="enable-background:new 0 0 3500 1000;" xml:space="preserve">
<style type="text/css">
	.st0{fill:#FFFFFF;}
	.st1{fill:#302A22;}
	.st2{fill:#BA973A;}
	.st3{fill:#FFF6E3;}
	.st4{fill:#3A2B08;}
	.st5{fill:#FF4300;}
</style>
<g>
	<g>
		<path class="st0" d="M1432.773,295.78c0,10.23-3.03,18.95-9,25.92c-6.27,7.31-14.89,11.18-24.93,11.18
			c-7.29,0-14.19-1.85-20.5-5.49c-5.34-3.07-11.57-7.61-19.06-13.88c-7.43-6.03-14.17-10.95-20.05-14.62
			c-5.54-3.45-12.55-6.55-20.84-9.21c-8.09-2.6-17.65-3.92-28.44-3.92c-19.06,0-34.33,4.08-45.38,12.12
			c-10.21,7.44-15.17,17.85-15.17,31.84c0,12.49,5.51,24.07,16.84,35.41c12.4,12.39,32.91,25.99,60.98,40.41
			c23.64,12.16,43.02,24.42,57.59,36.46c15.1,12.49,26.35,26.07,33.46,40.37c7.18,14.45,10.81,30.85,10.81,48.76
			c0,25.63-6.01,48.79-17.87,68.82c-11.91,20.11-28.82,35.92-50.28,47c-21.2,10.95-45.66,16.5-72.7,16.5
			c-22.89,0-45.01-3.32-65.76-9.87c-21.01-6.62-38.21-15.46-51.14-26.28c-14.28-11.95-21.52-25-21.52-38.79
			c0-9.33,3.1-17.56,9.23-24.46c6.35-7.15,14.29-10.93,22.98-10.93c6.75,0,13.14,1.65,19.02,4.92c4.91,2.72,10.78,6.85,17.93,12.6
			c8.09,6.22,15.55,11.4,22.18,15.41c6.21,3.76,14.39,7.1,24.31,9.93c9.87,2.82,21.8,4.25,35.46,4.25c12.4,0,22.99-2.79,32.38-8.53
			c9.44-5.79,16.49-13.2,21.54-22.67c5.12-9.61,7.61-19.53,7.61-30.33c0-9.64-2.41-17.98-7.37-25.5c-5.31-8.03-13.53-16-24.41-23.71
			c-11.59-8.19-27.86-17.91-48.38-28.89c-22.98-12.32-41.83-24.62-56.04-36.56c-14.71-12.35-25.72-25.5-32.73-39.08
			c-7.13-13.82-10.75-28.95-10.75-44.99c0-23.21,6.01-44.12,17.88-62.14c11.8-17.93,28.3-31.94,49.03-41.64
			c20.38-9.54,43.45-14.37,68.57-14.37c19.58,0,39.87,3.59,60.29,10.68c20.42,7.09,37.66,16.13,51.26,26.87
			C1425.253,271.58,1432.773,283.49,1432.773,295.78z"/>
	</g>
	<g>
		<path class="st0" d="M1726.223,370.24c0,3.05-0.53,8.78-4.66,26.23l-0.03,0.13c-2.22,8.85-3.98,16.78-5.24,23.57
			c-4.35,23.85-9.3,54.82-14.71,92.01c-5.35,36.86-8.07,61.14-8.07,72.18c0,5.74,0.71,14.36,2.12,25.61
			c0.87,6.63,1.3,11.61,1.3,15.16c0,9.72-3.51,18.12-10.15,24.29c-6.53,6.07-15.93,9.14-27.93,9.14c-7.86,0-15.02-3.06-20.7-8.86
			c-5.28-5.39-8.7-12.71-10.17-21.75l-0.02-0.12c-0.3-2.04-0.64-6.16-0.78-19.06c-9.16,11.78-19,21.93-29.43,30.36
			c-19.16,15.49-39.18,23.34-59.5,23.34c-18.45,0-34.17-4.42-46.72-13.14c-12.46-8.64-21.75-20.23-27.6-34.43
			c-5.6-13.61-8.44-28.57-8.44-44.46c0-6.94,0.94-19.22,2.86-37.54c1.83-17.39,3.84-36.18,5.99-55.83
			c6.45-54.85,9.88-90.09,10.2-104.85c0.23-9.53,4.34-17.89,11.89-24.18c7.2-6,16.91-9.04,28.87-9.04c8.09,0,15.52,2.81,22.07,8.34
			c6.96,5.89,10.63,14.14,10.63,23.88c0,3.06-0.46,8.84-4.43,23.59c-0.5,2.35-1.38,6.11-2.69,11.48c-1.22,5.04-2.14,9.73-2.74,13.95
			l-0.04,0.24c-4.2,25.04-8.75,54.53-13.52,87.66c-5.87,40.77-7.1,56.25-7.1,62.06c0,10.57,1.96,18.76,5.81,24.35
			c1.13,1.65,4.58,6.66,17.64,6.66c11.34,0,23.58-5.49,36.39-16.31c13.79-11.66,26.81-27.94,38.71-48.42
			c11.95-20.56,21.66-43.67,28.86-68.7c6.68-48.56,10.06-80.64,10.06-95.34l0.01-0.23c0.22-9.57,3.69-17.6,10.32-23.87
			c6.54-6.2,15.95-9.34,27.99-9.34c8.1,0,15.51,2.56,22,7.59C1722.443,352.16,1726.223,360.33,1726.223,370.24z"/>
	</g>
	<g>
		<path class="st0" d="M1993.863,604.33c3.85,5.1,5.8,11.36,5.8,18.6c0,9.58-2.98,18.23-8.85,25.71
			c-6.36,8.09-15.62,12.37-26.78,12.37c-15.25,0-31.14-7.68-48.58-23.46c-16.12-14.58-30.47-33.01-42.67-54.78
			c-7.85-14.01-13.7-27.84-17.5-41.32c-6.1,8.38-11.53,16.34-16.2,23.8c-7.24,11.55-12.46,21.46-15.54,29.48l-0.9,16.06
			c-0.34,7.07-0.75,12.85-1.26,17.6c-0.92,9.19-5.29,16.98-12.63,22.45c-6.87,5.13-15.41,7.72-25.39,7.72
			c-9.38,0-17.61-3.18-24.46-9.46c-6.99-6.41-10.68-14.45-10.68-23.24c0-3.86,0.66-11.77,6.37-35.76c3.18-13.84,5.61-25.64,7.19-35
			c2.72-16.65,6.4-44.03,10.92-81.32l1.72-13.49c8.23-65.72,13.68-113.53,16.19-142.07c2.5-28.43,4.01-50.22,4.49-64.76l0.01-0.22
			c0.44-8.1,0.66-10.37,0.79-11.44c1.15-8.98,5.5-16.54,12.57-21.87c6.71-5.07,15.27-7.64,25.43-7.64c10.12,0,18.62,3.25,25.25,9.64
			c6.64,6.41,10.14,14.55,10.14,23.56c0,4.58-0.48,9.18-1.44,13.67c-0.86,4.04-2.14,8.96-3.81,14.64
			c-2.33,8.86-3.98,15.85-4.91,20.77c-5.48,34.06-12.36,85.22-20.43,152.07c-1.13,9.32-2.18,18.04-3.14,26.16
			c23.73-36.4,45.78-65.76,65.8-87.59c28.37-30.93,51.34-45.96,70.23-45.96c10.65,0,19.42,3.3,26.06,9.82
			c6.68,6.57,10.07,14.93,10.07,24.84c0,8.51-3.59,16.25-10.68,22.99c-5.49,5.23-13.8,11.51-25.4,19.19
			c-1.32,0.94-4.28,2.93-9.51,6.42c-4.83,3.21-9.37,6.56-13.52,9.93c-10.47,8.44-19.65,17.02-27.32,25.55
			c-7.03,7.81-13.73,16.66-19.93,26.34c0.71,16.02,4.97,31.09,12.67,44.84c8.47,15.1,18.71,28.13,30.45,38.73
			c11.89,10.75,23.6,19.11,34.81,24.87c6.21,3.11,11.11,7,14.56,11.55L1993.863,604.33z"/>
	</g>
	<g>
		<path class="st0" d="M2171.913,261.19c-0.66,4.17-1.61,7.43-2.89,10.01c-0.81,1.61-1.29,2.57-1.45,2.89l-0.25,0.5l-0.3,0.47
			c-0.77,1.2-1.26,2.43-1.52,3.77l-0.07,0.34c-0.05,0.24-0.35,1.75-0.76,7.12l-0.82,9.33c-1.28,8.18-5.61,14.64-12.52,18.68
			c-5.93,3.47-13.93,5.15-24.46,5.15c-10.77,0-19.22-2.87-25.12-8.52c-6-5.76-9.05-14.23-9.05-25.16c0-3.36,0.28-7.1,0.82-11.12
			c1.93-13.33,6.39-23.74,13.26-31.02c7.39-7.83,17.19-11.8,29.12-11.8c10.28,0,18.85,2.25,25.47,6.7
			C2169.593,244.05,2173.323,252.1,2171.913,261.19z"/>
		<path class="st0" d="M2155.423,371.22c0,4.99-0.76,12.03-2.33,21.53c-1.47,8.89-3.2,18.52-5.16,28.63
			c-0.51,2.89-1.95,10.69-4.39,23.82c-2.4,12.83-4.34,25.31-5.77,37.09c-3.4,26.74-6.51,54.17-9.25,81.58
			c-2.72,27.18-4.1,47.79-4.1,61.26c0,9.33-3.82,17.65-11.05,24.07c-6.99,6.21-16.09,9.36-27.03,9.36c-9.21,0-17.26-2.58-23.9-7.67
			c-5.13-3.93-11.25-11.34-11.25-24.3c0-4.1,0.83-10.67,2.6-20.66c1.63-9.26,2.6-14.63,2.96-16.41c1.11-5.89,2.57-14.31,4.33-25.03
			c2.4-15.82,5.02-34.23,7.78-54.71l0.02-0.16c0.8-5.23,1.61-10.93,2.42-16.94c0.8-5.89,1.71-12.41,2.7-19.36
			c5.12-35.99,7.71-69.35,7.71-99.17c0-10.22,3.74-19.06,10.8-25.55c6.92-6.37,15.86-9.6,26.55-9.6c9.9,0,18.35,2.69,25.1,8
			C2151.533,352.8,2155.423,361.18,2155.423,371.22z"/>
	</g>
	<g>
		<path class="st0" d="M2493.073,295.78c0,10.23-3.03,18.95-9,25.92c-6.27,7.31-14.89,11.18-24.93,11.18
			c-7.29,0-14.19-1.85-20.5-5.49c-5.33-3.07-11.57-7.61-19.06-13.88c-7.42-6.03-14.17-10.95-20.05-14.62
			c-5.54-3.45-12.55-6.55-20.84-9.21c-8.08-2.6-17.65-3.92-28.43-3.92c-19.07,0-34.34,4.08-45.39,12.12
			c-10.21,7.44-15.17,17.85-15.17,31.84c0,12.49,5.51,24.07,16.85,35.41c12.39,12.39,32.9,25.99,60.97,40.41
			c23.64,12.16,43.02,24.42,57.59,36.46c15.1,12.49,26.36,26.07,33.47,40.37c7.17,14.45,10.81,30.85,10.81,48.76
			c0,25.63-6.02,48.79-17.88,68.82c-11.9,20.11-28.82,35.92-50.28,47c-21.2,10.95-45.66,16.5-72.7,16.5
			c-22.89,0-45.01-3.32-65.75-9.87c-21.02-6.62-38.22-15.46-51.14-26.28c-14.29-11.95-21.53-25-21.53-38.79
			c0-9.33,3.11-17.56,9.23-24.46c6.35-7.15,14.3-10.93,22.99-10.93c6.74,0,13.14,1.65,19.01,4.92c4.91,2.72,10.78,6.85,17.93,12.6
			c8.09,6.22,15.55,11.4,22.18,15.41c6.21,3.76,14.39,7.1,24.31,9.93c9.88,2.82,21.81,4.25,35.46,4.25c12.4,0,22.99-2.79,32.38-8.53
			c9.45-5.79,16.49-13.2,21.54-22.67c5.13-9.61,7.62-19.53,7.62-30.33c0-9.64-2.42-17.98-7.38-25.5c-5.31-8.03-13.52-16-24.41-23.71
			c-11.58-8.19-27.86-17.91-48.38-28.89c-22.98-12.32-41.83-24.62-56.04-36.56c-14.7-12.35-25.71-25.5-32.72-39.08
			c-7.14-13.82-10.76-28.95-10.76-44.99c0-23.21,6.02-44.12,17.88-62.14c11.81-17.93,28.3-31.94,49.04-41.64
			c20.37-9.54,43.44-14.37,68.57-14.37c19.58,0,39.86,3.59,60.28,10.68c20.42,7.09,37.66,16.13,51.26,26.87
			C2485.563,271.58,2493.073,283.49,2493.073,295.78z"/>
	</g>
	<g>
		<path class="st0" d="M2876.373,379.52c0,38.61-5.86,80.1-17.43,123.31c-11.65,43.52-28.3,80.7-49.48,110.51
			c-22.48,31.63-48.84,47.67-78.34,47.67c-15.13,0-35.7-5.83-47.86-33.58c-4.45-10.15-7.87-21.69-10.25-34.5
			c-7.62,14.84-15.92,27.64-24.8,38.25c-16.57,19.79-34.6,29.83-53.57,29.83s-44.78-8.45-60.01-48.7
			c-11.04-29.16-16.64-67.64-16.64-114.38c0-35.43,2.58-73.16,7.65-112.13c1.69-12.15,5.48-22.61,11.29-31.18
			c4.75-7.01,14.13-15.37,31.83-15.37c12.64,0,20.1,5.51,24.14,10.14c5.52,6.33,8.32,14.33,8.32,23.78c0,2.43-0.38,6.99-3.4,20.71
			l-0.11,0.44c-1.69,6.29-3.01,12.43-3.93,18.26l-0.06,0.31c-3.36,17.63-6.24,36.38-8.56,55.71c-2.3,19.2-3.47,36.95-3.47,52.77
			c0,26.68,2.51,48.13,7.47,63.75c1.72,5.42,6.38,18.04,12.56,18.04c1.53,0,9.8-1.34,22.76-27.84
			c10.54-21.55,19.49-47.32,26.61-76.58c7.1-29.2,10.7-53.37,10.7-71.86c0-10.72,3.02-19.99,8.98-27.55
			c6.53-8.28,16.24-12.48,28.85-12.48c13.5,0,20.89,5.8,24.71,10.66c4.98,6.35,7.51,14.01,7.51,22.78c0,4.22-0.51,10.12-1.55,18.03
			c-0.97,7.34-1.62,12.55-1.92,15.49l-0.05,0.37c-2.09,14.62-3.8,28.21-5.08,40.4c-1.26,11.95-1.9,24.16-1.9,36.31
			c0,23.72,2.01,42.89,5.97,56.98c2.65,9.44,6.26,15.29,9.42,15.29c6.9,0,16.1-7.6,25.9-21.42c11.4-16.07,21.21-38.72,29.16-67.32
			c8.02-28.86,12.09-61.18,12.09-96.08c0-3.71-0.12-7.85-0.35-12.29c-0.24-4.59-0.37-7.96-0.38-10.26
			c-0.49-6.43-0.74-12.4-0.74-17.73c0-10.08,3.32-19.05,9.87-26.66c6.83-7.95,16.25-12.15,27.23-12.15
			c15.89,0,24.31,6.93,28.58,12.75v0.01C2873.583,359.51,2876.373,368.77,2876.373,379.52z"/>
	</g>
	<g>
		<path class="st0" d="M3159.259,350.29c-6.54-6.19-14.48-9.33-23.6-9.33c-11.18,0-20.4,3.27-27.41,9.72
			c-2.71,2.5-5.02,5.43-6.93,8.78c-5.29-4.84-11.03-8.83-17.19-11.94c-11.22-5.65-24.27-8.52-38.8-8.52
			c-27.6,0-53.39,9.4-76.67,27.94c-22.74,18.11-41.02,42.59-54.31,72.76c-13.2,29.95-19.89,62.44-19.89,96.56
			c0,25.71,3.59,48,10.68,66.24c7.38,18.98,18.32,33.62,32.54,43.53c14.26,9.94,31.5,14.98,51.25,14.98
			c18.64,0,37.22-7.12,55.22-21.16c8.7-6.79,16.86-14.83,24.44-24.07c0.44,11.35,3.14,20.88,8.04,28.37
			c4.3,6.58,12.82,14.41,29,14.41c9.91,0,18.1-3.22,24.35-9.58c6.19-6.32,9.33-14.42,9.33-24.1c0-4.52-0.51-10.76-1.54-19.01
			c-0.92-7.71-1.39-14.04-1.39-18.83c0-11.21,2.72-36.21,8.08-74.29c5.4-38.37,10.25-68.15,14.42-88.5l0.07-0.36
			c0.3-1.82,1.41-7,4.93-21.31c0.29-1.03,0.9-3.43,2.87-11.71v-0.01c1.74-7.34,2.59-12.96,2.59-17.2
			C3169.339,364.62,3165.849,356.54,3159.259,350.29z M3084.499,480.16l-1.58,11.06c-6.36,18.85-15.07,36.94-25.87,53.8
			c-5.44,8.48-11.07,16.15-16.87,22.96c-5.8,6.82-11.77,12.78-17.85,17.84c-11.11,9.24-21.04,13.93-29.5,13.93
			c-11.62,0-19.62-3.99-25.18-12.55c-6.3-9.68-9.49-25.83-9.49-48.01c0-24.17,4.44-47.66,13.21-69.81
			c8.69-21.95,20.23-39.8,34.3-53.04c13.42-12.62,26.79-18.76,40.88-18.76c6.27,0,11.71,1.2,16.16,3.58
			c5.12,2.73,10.59,6.85,16.26,12.23l0.14,0.13c3.84,3.51,8,5.84,12.42,6.96C3089.889,437.69,3087.529,457.72,3084.499,480.16z"/>
	</g>
	<g>
		<path class="st0" d="M3459.663,399.8c-3.57-9.1-8.03-17.35-13.35-24.68c-5.32-7.34-11.5-13.76-18.49-19.23
			c-14.36-11.21-31.66-16.89-51.44-16.89c-20.43,0-40.16,7.33-58.65,21.78c-9.1,7.11-17.74,15.87-25.85,26.19
			c0.01-1.4,0.02-2.82,0.02-4.28c0-9.73-2.11-18.69-6.28-26.62c-3.62-6.89-11.31-15.11-27.4-15.11c-10.3,0-18.93,3.28-25.63,9.76
			c-6.8,6.57-10.25,15.11-10.25,25.38c0,3.79,0.43,8.64,1.32,14.89c1.23,8.28,1.85,15.51,1.85,21.49c0,7.3-2.65,37.66-15.31,140.89
			c-8.08,66.93-14.97,118.14-20.45,152.17c-1.41,8.61-3.48,18.25-6.16,28.67l-0.06,0.25c-3.24,14.08-3.67,18.29-3.67,20.55
			c0,9.31,3.63,17.49,10.52,23.67c6.67,6,14.95,9.03,24.62,9.03c10.16,0,18.71-2.56,25.44-7.63c7.05-5.32,11.39-12.86,12.55-21.79
			c0.15-1.09,0.36-3.41,0.81-11.78v-0.13c0.49-12.08,1.42-27.32,2.79-45.3c1.07-14.14,3.15-35.05,6.18-62.35
			c4.55,4.2,9.51,7.86,14.88,10.94c12.55,7.2,26.71,10.85,42.09,10.85c31.82,0,59.62-10.24,82.64-30.44
			c22.41-19.66,39.53-45.34,50.89-76.34c11.18-30.51,16.85-62.6,16.85-95.36C3470.123,437.2,3466.603,417.5,3459.663,399.8z
			 M3405.443,452.76c0,27.86-4.24,53.97-12.61,77.6c-8.23,23.24-19.4,41.83-33.19,55.25c-13.15,12.8-26.85,19.02-41.85,19.02
			c-6.15,0-11.98-1.75-17.84-5.36c-6.18-3.8-12.12-9.66-17.64-17.43c-2.26-3.34-5.17-5.92-8.64-7.65c-1.06-0.53-2.14-0.98-3.23-1.35
			l4.05-33.21l2.11-17.8c4.99-17.98,12.88-36.84,23.46-56.07c10.59-19.26,22.86-35.57,36.45-48.47
			c12.42-11.78,24.44-17.76,35.72-17.76c6.51,0,11.97,1.84,16.7,5.62c5.03,4.03,9.03,10,11.88,17.74
			C3403.883,431.26,3405.443,441.31,3405.443,452.76z"/>
	</g>
</g>
<g>
	<g>
		<circle class="st1" cx="529.877" cy="500" r="500"/>
		<g>
			<path class="st2" d="M915.104,657.985C903.818,773.59,791.201,823.829,697.772,890.681
				c-49.644,35.532-107.136,59.31-167.868,59.319c-60.741,0.009-118.233-23.769-167.886-59.292
				c-93.438-66.834-206.064-117.054-217.359-232.66c-7.947-81.279,11.826-159.238,37.116-220.177
				c-38.448-112.806-30.87-365.194,9.135-386.146c27.009-14.139,149.904,62.973,235.836,155.683
				c33.228-4.365,68.13-7.479,103.095-7.488c34.974,0,69.876,3.114,103.104,7.47c85.923-92.718,208.809-169.849,235.818-155.71
				c40.005,20.943,47.619,273.304,9.189,386.128C903.251,498.738,923.033,576.697,915.104,657.985z"/>
		</g>
		<g>
			<g>
				<path class="st3" d="M352.245,225.985c-51.927,23.061-90.033,65.739-121.831,117.318c-6.882,11.164-24.094,6.856-24.937-6.232
					c-5.767-89.492,3.98-187.052,25.806-198.487c15.335-8.024,69.283,20.714,123.869,64.593
					C362.987,209.476,361.433,221.904,352.245,225.985z"/>
			</g>
			<g>
				<path class="st3" d="M829.296,343.242c-31.809-51.568-69.921-94.238-121.849-117.288c-9.189-4.079-10.745-16.507-2.91-22.807
					c54.577-43.887,108.518-72.632,123.852-64.608c21.826,11.428,31.594,108.971,25.843,198.466
					C853.391,350.092,836.181,354.403,829.296,343.242z"/>
			</g>
		</g>
		<path class="st3" d="M916.04,645.117c-7.313-36.146-22.893-66.187-52.502-78.266c-98.833-40.322-214.167,61.316-296.771,59.709
			c-1.676-0.032-3.364-0.11-5.065-0.23c-21.176-1.491-42.474-1.489-63.65,0.005c-1.701,0.12-3.389,0.198-5.065,0.231
			c-82.604,1.62-197.953-100-296.78-59.664c-29.607,12.084-45.182,42.128-52.491,78.275c0.269,4.285,0.518,8.567,0.938,12.872
			c11.299,115.601,121.937,167.998,215.377,234.837c49.653,35.518,109.134,57.119,169.869,57.114
			c60.736-0.005,118.228-23.791,167.874-59.316c93.43-66.854,206.046-117.092,217.328-232.695
			C915.523,653.684,915.772,649.402,916.04,645.117z"/>
		<path class="st4" d="M706.155,690.391c-4.724-4.49-12.124-4.201-16.507,0.596c-17.163,18.781-69.495,63.451-105.132,44.887
			c-26.287-13.686-36.517-38.871-40.477-57.372c16.471-3.695,31.155-12.114,44.294-24.661
			c12.448-11.888,18.681-29.241,15.178-46.251c-0.099-0.47-0.198-0.939-0.305-1.409c-4.329-19.07-20.414-33.207-39.436-36.125
			c-11.19-1.725-22.309-2.556-33.903-2.556c-11.595,0-22.722,0.84-33.912,2.556c-19.022,2.927-35.107,17.064-39.427,36.143
			c-0.108,0.461-0.207,0.93-0.305,1.4c-3.494,17.01,2.73,34.363,15.187,46.251c13.139,12.547,27.832,20.967,44.303,24.652
			c-3.961,18.51-14.19,43.695-40.468,57.381c-35.529,18.51-87.942-26.116-105.141-44.869c-4.401-4.797-11.783-5.068-16.507-0.587
			c-4.715,4.472-4.984,11.987-0.593,16.793c1.545,1.68,21.034,22.719,47.545,38.736c18.932,42.665,66.81,133.741,131.159,136.496
			c60.721,2.629,118.792-103.867,138.29-143.533c20.872-14.562,35.43-30.28,36.75-31.726
			C711.139,702.388,710.879,694.863,706.155,690.391z M532.462,839.661c-37.154-1.599-66.891-42.891-84.862-76.017
			c2.901,0.343,5.82,0.524,8.738,0.524c2.506,0,5.02-0.135,7.526-0.416c7.436-0.831,14.828-2.945,22.021-6.694
			c22.578-11.762,33.553-11.906,45.677-11.906c13.319,0,19.731,0.136,42.31,11.897c7.131,3.713,14.45,5.827,21.824,6.667
			c2.578,0.298,5.155,0.443,7.733,0.443c5.29,0,10.571-0.596,15.798-1.662C598.922,797.023,566.249,841.124,532.462,839.661z"/>
		<path class="st5" d="M619.228,762.497c-20.306,34.526-52.979,78.627-86.766,77.164c-37.154-1.599-66.891-42.891-84.862-76.017
			c2.901,0.343,5.82,0.524,8.738,0.524c9.951,0,19.929-2.096,29.548-7.109c22.578-11.762,33.553-11.906,45.677-11.906
			c13.319,0,19.731,0.136,42.31,11.897c9.628,5.014,19.597,7.109,29.557,7.109C608.72,764.159,614.001,763.563,619.228,762.497z"/>
		<g>
			<path class="st0" d="M595.697,763.716c-3.476,7.435-9.708,19.142-14.468,19.458c-4.616,0.307-10.202-10.506-13.481-17.904
				c-25.56,3.053-50.868,3.026-75.943,0.018c-3.278,7.398-8.864,18.202-13.471,17.895c-4.76-0.316-10.975-11.987-14.468-19.431
				c7.436-0.831,14.828-2.945,22.021-6.694c22.578-11.762,33.553-11.906,45.677-11.906c13.319,0,19.731,0.136,42.31,11.897
				C581.004,760.762,588.324,762.876,595.697,763.716z"/>
		</g>
		<g>
			<g>
				<path class="st4" d="M715.857,486.226c0.002,33.643-52.05,42.86-81.621,42.862c-29.571,0.002-53.543-8.177-53.545-41.821
					c-0.003-33.644,38.008-60.92,67.578-60.922C677.839,426.342,715.854,452.582,715.857,486.226z"/>
				<path class="st0" d="M659.327,440.717c-5.546-0.302-10.206,4.217-9.943,9.831c0.394,8.438,3.893,20.337,19.668,24.161
					c7.662,1.857,13.972,2.591,19.048,2.711c8.122,0.192,12.381-9.671,6.938-15.775C686.801,452.406,674.07,441.521,659.327,440.717
					z"/>
			</g>
			<g>
				<path class="st4" d="M330.441,486.255c0.002,33.643,52.056,42.852,81.627,42.85c29.57-0.002,53.541-8.185,53.539-41.829
					c-0.003-33.643-38.018-60.914-67.588-60.912C368.449,426.366,330.439,452.611,330.441,486.255z"/>
				<path class="st0" d="M409.709,440.736c-5.545-0.303-10.206,4.217-9.943,9.831c0.395,8.438,3.893,20.337,19.668,24.161
					c7.662,1.857,13.972,2.591,19.049,2.711c8.122,0.192,12.38-9.671,6.938-15.775C437.183,452.425,424.453,441.54,409.709,440.736z
					"/>
			</g>
			<path class="st3" d="M465.5,369.075c-0.69,6.2-4.587,11.015-5.781,12.393c-7.073,8.168-17.763,9.471-23.68,10.193
				c-35.59,4.347-53.392,6.521-53.764,6.545c-47.289,3.154-62.565,10.163-73.106-0.991c-1.122-1.187-5.506-5.956-5.956-12.81
				c-1.799-27.435,62.092-47.995,64.835-48.853c18.645-5.833,44.594-13.951,69.03-1.66
				C448.956,339.866,467.173,354.031,465.5,369.075z"/>
			<path class="st3" d="M580.825,364.797c0.766,6.415,4.688,11.474,5.887,12.923c7.11,8.591,17.707,10.179,23.573,11.059
				c35.281,5.295,52.93,7.943,53.298,7.977c46.844,4.329,62.057,11.911,72.34,0.638c1.094-1.2,5.37-6.023,5.722-13.088
				c1.413-28.278-62.096-50.951-64.822-51.899c-18.531-6.444-44.322-15.413-68.341-3.281
				C596.807,335.024,578.967,349.231,580.825,364.797z"/>
		</g>
	</g>
</g>
<g>
</g>
<g>
</g>
<g>
</g>
<g>
</g>
<g>
</g>
</svg>
