<?xml version="1.0" encoding="utf-8"?>
<!-- Generator: Adobe Illustrator 26.2.1, SVG Export Plug-In . SVG Version: 6.00 Build 0)  -->
<svg version="1.1" id="Layer_1" xmlns="http://www.w3.org/2000/svg" xmlns:xlink="http://www.w3.org/1999/xlink" x="0px" y="0px"
	 width="512px" height="512px" viewBox="0 0 512 512" style="enable-background:new 0 0 512 512;" xml:space="preserve">
<style type="text/css">
	.st0{fill:#BA973A;}
	.st1{fill:#3A2B08;}
</style>
<g>
	<g>
		<g>
			<path class="st0" d="M475.151,345.876c-6.421,65.767-70.487,94.347-123.638,132.378c-28.242,20.214-60.949,33.741-95.498,33.746
				c-34.555,0.005-67.262-13.522-95.509-33.731C107.35,440.248,43.279,411.678,36.853,345.912
				c-4.521-46.239,6.728-90.588,21.115-125.256C36.095,156.481,40.406,12.901,63.165,0.981
				c15.365-8.044,85.279,35.825,134.165,88.566c18.903-2.483,38.758-4.255,58.65-4.26c19.896,0,39.752,1.772,58.655,4.25
				C363.515,36.791,433.423-7.088,448.788,0.956c22.758,11.914,27.09,155.48,5.228,219.664
				C468.408,255.282,479.662,299.632,475.151,345.876z"/>
		</g>
		<g>
			<g>
				<path class="st1" d="M154.947,100.116c-29.541,13.119-51.219,37.398-69.309,66.741c-3.915,6.351-13.707,3.9-14.186-3.545
					C68.171,112.4,73.717,56.9,86.133,50.394c8.724-4.565,39.414,11.784,70.467,36.746
					C161.058,90.724,160.174,97.794,154.947,100.116z"/>
			</g>
			<g>
				<path class="st1" d="M426.336,166.822c-18.096-29.337-39.777-53.611-69.318-66.724c-5.227-2.32-6.113-9.391-1.656-12.975
					c31.048-24.967,61.734-41.319,70.458-36.754c12.417,6.501,17.973,61.993,14.702,112.905
					C440.043,170.719,430.253,173.172,426.336,166.822z"/>
			</g>
		</g>
		<path class="st1" d="M356.282,364.312c-2.687-2.554-6.897-2.39-9.391,0.339c-9.764,10.684-39.535,36.097-59.808,25.536
			c-14.955-7.786-20.774-22.113-23.027-32.638c9.37-2.102,17.724-6.891,25.199-14.03c7.081-6.763,10.627-16.635,8.635-26.312
			c-0.056-0.267-0.112-0.534-0.174-0.802c-2.463-10.849-11.613-18.891-22.434-20.551c-6.366-0.982-12.691-1.454-19.287-1.454
			c-6.596,0-12.926,0.478-19.292,1.454c-10.821,1.665-19.972,9.708-22.429,20.561c-0.061,0.262-0.117,0.529-0.174,0.797
			c-1.987,9.677,1.553,19.549,8.64,26.312c7.475,7.138,15.833,11.928,25.204,14.024c-2.253,10.53-8.073,24.858-23.022,32.643
			c-20.212,10.53-50.029-14.857-59.813-25.526c-2.503-2.729-6.703-2.883-9.391-0.334c-2.682,2.544-2.836,6.82-0.337,9.553
			c0.879,0.956,11.966,12.925,27.048,22.036c10.77,24.272,38.007,76.084,74.615,77.651c34.543,1.495,67.579-59.089,78.671-81.654
			c11.874-8.284,20.156-17.226,20.907-18.048C359.118,371.136,358.97,366.855,356.282,364.312z M257.471,449.229
			c-21.137-0.91-38.053-24.4-48.277-43.245c1.65,0.195,3.311,0.298,4.971,0.298c1.425,0,2.856-0.077,4.282-0.236
			c4.23-0.473,8.435-1.675,12.528-3.808c12.845-6.691,19.088-6.773,25.985-6.773c7.577,0,11.225,0.077,24.069,6.768
			c4.057,2.112,8.221,3.315,12.415,3.793c1.466,0.17,2.933,0.252,4.399,0.252c3.009,0,6.014-0.339,8.987-0.946
			C295.279,424.973,276.691,450.062,257.471,449.229z"/>
		<g>
			<path class="st1" d="M293.444,406.025c-1.977,4.229-5.523,10.89-8.231,11.07c-2.626,0.175-5.804-5.977-7.669-10.186
				c-14.541,1.737-28.939,1.722-43.203,0.01c-1.865,4.209-5.043,10.355-7.664,10.18c-2.708-0.18-6.243-6.819-8.231-11.054
				c4.23-0.473,8.435-1.675,12.528-3.808c12.845-6.691,19.088-6.773,25.985-6.773c7.577,0,11.225,0.077,24.069,6.768
				C285.086,404.345,289.25,405.547,293.444,406.025z"/>
		</g>
		<g>
			<g>
				<path class="st1" d="M361.802,248.164c0.001,19.139-29.611,24.382-46.433,24.384c-16.823,0.001-30.46-4.652-30.461-23.791
					c-0.002-19.14,21.622-34.657,38.445-34.658C340.174,214.097,361.8,229.024,361.802,248.164z"/>
			</g>
			<g>
				<path class="st1" d="M142.543,248.181c0.001,19.139,29.614,24.378,46.437,24.377c16.822-0.001,30.459-4.656,30.458-23.796
					c-0.002-19.139-21.628-34.653-38.45-34.652C164.165,214.11,142.542,229.041,142.543,248.181z"/>
			</g>
		</g>
	</g>
</g>
<g>
</g>
<g>
</g>
<g>
</g>
<g>
</g>
<g>
</g>
</svg>
