<?xml version="1.0" encoding="utf-8"?>
<!-- Generator: Adobe Illustrator 26.2.1, SVG Export Plug-In . SVG Version: 6.00 Build 0)  -->
<svg version="1.1" id="Layer_1" xmlns="http://www.w3.org/2000/svg" xmlns:xlink="http://www.w3.org/1999/xlink" x="0px" y="0px"
	 width="3500px" height="1000px" viewBox="0 0 3500 1000" style="enable-background:new 0 0 3500 1000;" xml:space="preserve">
<style type="text/css">
	.st0{fill:#FFFFFF;}
	.st1{fill:#009B6C;}
	.st2{fill:#E24D4D;}
</style>
<g>
	<g>
		<path class="st0" d="M1432.8,296.1c0,10.2-3,19-9,25.9c-6.3,7.3-14.9,11.2-24.9,11.2c-7.3,0-14.2-1.9-20.5-5.5
			c-5.3-3.1-11.6-7.6-19.1-13.9c-7.4-6-14.2-11-20.1-14.6c-5.5-3.5-12.6-6.5-20.8-9.2c-8.1-2.6-17.7-3.9-28.4-3.9
			c-19.1,0-34.3,4.1-45.4,12.1c-10.2,7.4-15.2,17.8-15.2,31.8c0,12.5,5.5,24.1,16.8,35.4c12.4,12.4,32.9,26,61,40.4
			c23.6,12.2,43,24.4,57.6,36.5c15.1,12.5,26.3,26.1,33.5,40.4c7.2,14.5,10.8,30.8,10.8,48.8c0,25.6-6,48.8-17.9,68.8
			c-11.9,20.1-28.8,35.9-50.3,47c-21.2,11-45.7,16.5-72.7,16.5c-22.9,0-45-3.3-65.8-9.9c-21-6.6-38.2-15.5-51.1-26.3
			c-14.3-12-21.5-25-21.5-38.8c0-9.3,3.1-17.6,9.2-24.5c6.3-7.2,14.3-10.9,23-10.9c6.8,0,13.1,1.7,19,4.9
			c4.9,2.7,10.8,6.8,17.9,12.6c8.1,6.2,15.6,11.4,22.2,15.4c6.2,3.8,14.4,7.1,24.3,9.9c9.9,2.8,21.8,4.2,35.5,4.2
			c12.4,0,23-2.8,32.4-8.5c9.4-5.8,16.5-13.2,21.5-22.7c5.1-9.6,7.6-19.5,7.6-30.3c0-9.6-2.4-18-7.4-25.5c-5.3-8-13.5-16-24.4-23.7
			c-11.6-8.2-27.9-17.9-48.4-28.9c-23-12.3-41.8-24.6-56-36.6c-14.7-12.4-25.7-25.5-32.7-39.1c-7.1-13.8-10.8-29-10.8-45
			c0-23.2,6-44.1,17.9-62.1c11.8-17.9,28.3-31.9,49-41.6c20.4-9.5,43.4-14.4,68.6-14.4c19.6,0,39.9,3.6,60.3,10.7
			c20.4,7.1,37.7,16.1,51.3,26.9C1425.3,271.9,1432.8,283.8,1432.8,296.1z"/>
	</g>
	<g>
		<path class="st0" d="M1726.2,370.6c0,3-0.5,8.8-4.7,26.2l0,0.1c-2.2,8.9-4,16.8-5.2,23.6c-4.3,23.9-9.3,54.8-14.7,92
			c-5.3,36.9-8.1,61.1-8.1,72.2c0,5.7,0.7,14.4,2.1,25.6c0.9,6.6,1.3,11.6,1.3,15.2c0,9.7-3.5,18.1-10.2,24.3
			c-6.5,6.1-15.9,9.1-27.9,9.1c-7.9,0-15-3.1-20.7-8.9c-5.3-5.4-8.7-12.7-10.2-21.8l0-0.1c-0.3-2-0.6-6.2-0.8-19.1
			c-9.2,11.8-19,21.9-29.4,30.4c-19.2,15.5-39.2,23.3-59.5,23.3c-18.4,0-34.2-4.4-46.7-13.1c-12.5-8.6-21.8-20.2-27.6-34.4
			c-5.6-13.6-8.4-28.6-8.4-44.5c0-6.9,0.9-19.2,2.9-37.5c1.8-17.4,3.8-36.2,6-55.8c6.4-54.9,9.9-90.1,10.2-104.9
			c0.2-9.5,4.3-17.9,11.9-24.2c7.2-6,16.9-9,28.9-9c8.1,0,15.5,2.8,22.1,8.3c7,5.9,10.6,14.1,10.6,23.9c0,3.1-0.5,8.8-4.4,23.6
			c-0.5,2.3-1.4,6.1-2.7,11.5c-1.2,5-2.1,9.7-2.7,14l0,0.2c-4.2,25-8.8,54.5-13.5,87.7c-5.9,40.8-7.1,56.2-7.1,62.1
			c0,10.6,2,18.8,5.8,24.3c1.1,1.7,4.6,6.7,17.6,6.7c11.3,0,23.6-5.5,36.4-16.3c13.8-11.7,26.8-27.9,38.7-48.4
			c11.9-20.6,21.7-43.7,28.9-68.7c6.7-48.6,10.1-80.6,10.1-95.3l0-0.2c0.2-9.6,3.7-17.6,10.3-23.9c6.5-6.2,15.9-9.3,28-9.3
			c8.1,0,15.5,2.6,22,7.6C1722.4,352.5,1726.2,360.7,1726.2,370.6z"/>
	</g>
	<g>
		<path class="st0" d="M1993.9,604.7c3.8,5.1,5.8,11.4,5.8,18.6c0,9.6-3,18.2-8.8,25.7c-6.4,8.1-15.6,12.4-26.8,12.4
			c-15.2,0-31.1-7.7-48.6-23.5c-16.1-14.6-30.5-33-42.7-54.8c-7.8-14-13.7-27.8-17.5-41.3c-6.1,8.4-11.5,16.3-16.2,23.8
			c-7.2,11.5-12.5,21.5-15.5,29.5l-0.9,16.1c-0.3,7.1-0.8,12.8-1.3,17.6c-0.9,9.2-5.3,17-12.6,22.5c-6.9,5.1-15.4,7.7-25.4,7.7
			c-9.4,0-17.6-3.2-24.5-9.5c-7-6.4-10.7-14.5-10.7-23.2c0-3.9,0.7-11.8,6.4-35.8c3.2-13.8,5.6-25.6,7.2-35
			c2.7-16.7,6.4-44,10.9-81.3l1.7-13.5c8.2-65.7,13.7-113.5,16.2-142.1c2.5-28.4,4-50.2,4.5-64.8l0-0.2c0.4-8.1,0.7-10.4,0.8-11.4
			c1.2-9,5.5-16.5,12.6-21.9c6.7-5.1,15.3-7.6,25.4-7.6c10.1,0,18.6,3.2,25.2,9.6c6.6,6.4,10.1,14.6,10.1,23.6
			c0,4.6-0.5,9.2-1.4,13.7c-0.9,4-2.1,9-3.8,14.6c-2.3,8.9-4,15.8-4.9,20.8c-5.5,34.1-12.4,85.2-20.4,152.1
			c-1.1,9.3-2.2,18-3.1,26.2c23.7-36.4,45.8-65.8,65.8-87.6c28.4-30.9,51.3-46,70.2-46c10.7,0,19.4,3.3,26.1,9.8
			c6.7,6.6,10.1,14.9,10.1,24.8c0,8.5-3.6,16.2-10.7,23c-5.5,5.2-13.8,11.5-25.4,19.2c-1.3,0.9-4.3,2.9-9.5,6.4
			c-4.8,3.2-9.4,6.6-13.5,9.9c-10.5,8.4-19.7,17-27.3,25.5c-7,7.8-13.7,16.7-19.9,26.3c0.7,16,5,31.1,12.7,44.8
			c8.5,15.1,18.7,28.1,30.4,38.7c11.9,10.8,23.6,19.1,34.8,24.9C1985.5,596.2,1990.4,600.1,1993.9,604.7L1993.9,604.7z"/>
	</g>
	<g>
		<path class="st0" d="M2171.9,261.5c-0.7,4.2-1.6,7.4-2.9,10c-0.8,1.6-1.3,2.6-1.4,2.9l-0.2,0.5l-0.3,0.5c-0.8,1.2-1.3,2.4-1.5,3.8
			l-0.1,0.3c-0.1,0.2-0.4,1.8-0.8,7.1l-0.8,9.3c-1.3,8.2-5.6,14.6-12.5,18.7c-5.9,3.5-13.9,5.1-24.5,5.1c-10.8,0-19.2-2.9-25.1-8.5
			c-6-5.8-9.1-14.2-9.1-25.2c0-3.4,0.3-7.1,0.8-11.1c1.9-13.3,6.4-23.7,13.3-31c7.4-7.8,17.2-11.8,29.1-11.8
			c10.3,0,18.9,2.2,25.5,6.7C2169.6,244.4,2173.3,252.4,2171.9,261.5z"/>
		<path class="st0" d="M2155.4,371.6c0,5-0.8,12-2.3,21.5c-1.5,8.9-3.2,18.5-5.2,28.6c-0.5,2.9-1.9,10.7-4.4,23.8
			c-2.4,12.8-4.3,25.3-5.8,37.1c-3.4,26.7-6.5,54.2-9.2,81.6c-2.7,27.2-4.1,47.8-4.1,61.3c0,9.3-3.8,17.7-11.1,24.1
			c-7,6.2-16.1,9.4-27,9.4c-9.2,0-17.3-2.6-23.9-7.7c-5.1-3.9-11.2-11.3-11.2-24.3c0-4.1,0.8-10.7,2.6-20.7c1.6-9.3,2.6-14.6,3-16.4
			c1.1-5.9,2.6-14.3,4.3-25c2.4-15.8,5-34.2,7.8-54.7l0-0.2c0.8-5.2,1.6-10.9,2.4-16.9c0.8-5.9,1.7-12.4,2.7-19.4
			c5.1-36,7.7-69.4,7.7-99.2c0-10.2,3.7-19.1,10.8-25.5c6.9-6.4,15.9-9.6,26.6-9.6c9.9,0,18.4,2.7,25.1,8
			C2151.5,353.1,2155.4,361.5,2155.4,371.6z"/>
	</g>
	<g>
		<path class="st0" d="M2493.1,296.1c0,10.2-3,19-9,25.9c-6.3,7.3-14.9,11.2-24.9,11.2c-7.3,0-14.2-1.9-20.5-5.5
			c-5.3-3.1-11.6-7.6-19.1-13.9c-7.4-6-14.2-11-20.1-14.6c-5.5-3.5-12.6-6.5-20.8-9.2c-8.1-2.6-17.6-3.9-28.4-3.9
			c-19.1,0-34.3,4.1-45.4,12.1c-10.2,7.4-15.2,17.8-15.2,31.8c0,12.5,5.5,24.1,16.9,35.4c12.4,12.4,32.9,26,61,40.4
			c23.6,12.2,43,24.4,57.6,36.5c15.1,12.5,26.4,26.1,33.5,40.4c7.2,14.5,10.8,30.8,10.8,48.8c0,25.6-6,48.8-17.9,68.8
			c-11.9,20.1-28.8,35.9-50.3,47c-21.2,11-45.7,16.5-72.7,16.5c-22.9,0-45-3.3-65.8-9.9c-21-6.6-38.2-15.5-51.1-26.3
			c-14.3-12-21.5-25-21.5-38.8c0-9.3,3.1-17.6,9.2-24.5c6.4-7.2,14.3-10.9,23-10.9c6.7,0,13.1,1.7,19,4.9
			c4.9,2.7,10.8,6.8,17.9,12.6c8.1,6.2,15.6,11.4,22.2,15.4c6.2,3.8,14.4,7.1,24.3,9.9c9.9,2.8,21.8,4.2,35.5,4.2
			c12.4,0,23-2.8,32.4-8.5c9.4-5.8,16.5-13.2,21.5-22.7c5.1-9.6,7.6-19.5,7.6-30.3c0-9.6-2.4-18-7.4-25.5c-5.3-8-13.5-16-24.4-23.7
			c-11.6-8.2-27.9-17.9-48.4-28.9c-23-12.3-41.8-24.6-56-36.6c-14.7-12.4-25.7-25.5-32.7-39.1c-7.1-13.8-10.8-29-10.8-45
			c0-23.2,6-44.1,17.9-62.1c11.8-17.9,28.3-31.9,49-41.6c20.4-9.5,43.4-14.4,68.6-14.4c19.6,0,39.9,3.6,60.3,10.7
			c20.4,7.1,37.7,16.1,51.3,26.9C2485.6,271.9,2493.1,283.8,2493.1,296.1z"/>
	</g>
	<g>
		<path class="st0" d="M2876.4,379.9c0,38.6-5.9,80.1-17.4,123.3c-11.6,43.5-28.3,80.7-49.5,110.5c-22.5,31.6-48.8,47.7-78.3,47.7
			c-15.1,0-35.7-5.8-47.9-33.6c-4.4-10.2-7.9-21.7-10.2-34.5c-7.6,14.8-15.9,27.6-24.8,38.2c-16.6,19.8-34.6,29.8-53.6,29.8
			s-44.8-8.5-60-48.7c-11-29.2-16.6-67.6-16.6-114.4c0-35.4,2.6-73.2,7.6-112.1c1.7-12.2,5.5-22.6,11.3-31.2
			c4.8-7,14.1-15.4,31.8-15.4c12.6,0,20.1,5.5,24.1,10.1c5.5,6.3,8.3,14.3,8.3,23.8c0,2.4-0.4,7-3.4,20.7l-0.1,0.4
			c-1.7,6.3-3,12.4-3.9,18.3l-0.1,0.3c-3.4,17.6-6.2,36.4-8.6,55.7c-2.3,19.2-3.5,37-3.5,52.8c0,26.7,2.5,48.1,7.5,63.8
			c1.7,5.4,6.4,18,12.6,18c1.5,0,9.8-1.3,22.8-27.8c10.5-21.5,19.5-47.3,26.6-76.6c7.1-29.2,10.7-53.4,10.7-71.9c0-10.7,3-20,9-27.5
			c6.5-8.3,16.2-12.5,28.9-12.5c13.5,0,20.9,5.8,24.7,10.7c5,6.3,7.5,14,7.5,22.8c0,4.2-0.5,10.1-1.6,18c-1,7.3-1.6,12.5-1.9,15.5
			l-0.1,0.4c-2.1,14.6-3.8,28.2-5.1,40.4c-1.3,12-1.9,24.2-1.9,36.3c0,23.7,2,42.9,6,57c2.6,9.4,6.3,15.3,9.4,15.3
			c6.9,0,16.1-7.6,25.9-21.4c11.4-16.1,21.2-38.7,29.2-67.3c8-28.9,12.1-61.2,12.1-96.1c0-3.7-0.1-7.9-0.4-12.3
			c-0.2-4.6-0.4-8-0.4-10.3c-0.5-6.4-0.7-12.4-0.7-17.7c0-10.1,3.3-19,9.9-26.7c6.8-8,16.2-12.1,27.2-12.1
			c15.9,0,24.3,6.9,28.6,12.8v0C2873.6,359.8,2876.4,369.1,2876.4,379.9z"/>
	</g>
	<g>
		<path class="st0" d="M3159.3,350.6c-6.5-6.2-14.5-9.3-23.6-9.3c-11.2,0-20.4,3.3-27.4,9.7c-2.7,2.5-5,5.4-6.9,8.8
			c-5.3-4.8-11-8.8-17.2-11.9c-11.2-5.7-24.3-8.5-38.8-8.5c-27.6,0-53.4,9.4-76.7,27.9c-22.7,18.1-41,42.6-54.3,72.8
			c-13.2,30-19.9,62.4-19.9,96.6c0,25.7,3.6,48,10.7,66.2c7.4,19,18.3,33.6,32.5,43.5c14.3,9.9,31.5,15,51.2,15
			c18.6,0,37.2-7.1,55.2-21.2c8.7-6.8,16.9-14.8,24.4-24.1c0.4,11.3,3.1,20.9,8,28.4c4.3,6.6,12.8,14.4,29,14.4
			c9.9,0,18.1-3.2,24.4-9.6c6.2-6.3,9.3-14.4,9.3-24.1c0-4.5-0.5-10.8-1.5-19c-0.9-7.7-1.4-14-1.4-18.8c0-11.2,2.7-36.2,8.1-74.3
			c5.4-38.4,10.2-68.2,14.4-88.5l0.1-0.4c0.3-1.8,1.4-7,4.9-21.3c0.3-1,0.9-3.4,2.9-11.7v0c1.7-7.3,2.6-13,2.6-17.2
			C3169.3,365,3165.8,356.9,3159.3,350.6z M3084.5,480.5l-1.6,11.1c-6.4,18.9-15.1,36.9-25.9,53.8c-5.4,8.5-11.1,16.2-16.9,23
			c-5.8,6.8-11.8,12.8-17.9,17.8c-11.1,9.2-21,13.9-29.5,13.9c-11.6,0-19.6-4-25.2-12.5c-6.3-9.7-9.5-25.8-9.5-48
			c0-24.2,4.4-47.7,13.2-69.8c8.7-22,20.2-39.8,34.3-53c13.4-12.6,26.8-18.8,40.9-18.8c6.3,0,11.7,1.2,16.2,3.6
			c5.1,2.7,10.6,6.8,16.3,12.2l0.1,0.1c3.8,3.5,8,5.8,12.4,7C3089.9,438,3087.5,458.1,3084.5,480.5z"/>
	</g>
	<g>
		<path class="st0" d="M3459.7,400.1c-3.6-9.1-8-17.4-13.4-24.7c-5.3-7.3-11.5-13.8-18.5-19.2c-14.4-11.2-31.7-16.9-51.4-16.9
			c-20.4,0-40.2,7.3-58.6,21.8c-9.1,7.1-17.7,15.9-25.9,26.2c0-1.4,0-2.8,0-4.3c0-9.7-2.1-18.7-6.3-26.6
			c-3.6-6.9-11.3-15.1-27.4-15.1c-10.3,0-18.9,3.3-25.6,9.8c-6.8,6.6-10.2,15.1-10.2,25.4c0,3.8,0.4,8.6,1.3,14.9
			c1.2,8.3,1.9,15.5,1.9,21.5c0,7.3-2.6,37.7-15.3,140.9c-8.1,66.9-15,118.1-20.4,152.2c-1.4,8.6-3.5,18.2-6.2,28.7l-0.1,0.2
			c-3.2,14.1-3.7,18.3-3.7,20.5c0,9.3,3.6,17.5,10.5,23.7c6.7,6,14.9,9,24.6,9c10.2,0,18.7-2.6,25.4-7.6
			c7.1-5.3,11.4-12.9,12.6-21.8c0.1-1.1,0.4-3.4,0.8-11.8v-0.1c0.5-12.1,1.4-27.3,2.8-45.3c1.1-14.1,3.1-35,6.2-62.3
			c4.6,4.2,9.5,7.9,14.9,10.9c12.6,7.2,26.7,10.8,42.1,10.8c31.8,0,59.6-10.2,82.6-30.4c22.4-19.7,39.5-45.3,50.9-76.3
			c11.2-30.5,16.9-62.6,16.9-95.4C3470.1,437.5,3466.6,417.8,3459.7,400.1z M3405.4,453.1c0,27.9-4.2,54-12.6,77.6
			c-8.2,23.2-19.4,41.8-33.2,55.2c-13.1,12.8-26.9,19-41.9,19c-6.1,0-12-1.8-17.8-5.4c-6.2-3.8-12.1-9.7-17.6-17.4
			c-2.3-3.3-5.2-5.9-8.6-7.7c-1.1-0.5-2.1-1-3.2-1.3l4.1-33.2l2.1-17.8c5-18,12.9-36.8,23.5-56.1c10.6-19.3,22.9-35.6,36.4-48.5
			c12.4-11.8,24.4-17.8,35.7-17.8c6.5,0,12,1.8,16.7,5.6c5,4,9,10,11.9,17.7C3403.9,431.6,3405.4,441.6,3405.4,453.1z"/>
	</g>
</g>
<g>
	<path class="st1" d="M1029.9,604.6c0,217.8-223.9,394.4-500,394.4c-276.1,0-500-176.6-500-394.4c0-85.8,34.7-165.2,93.7-230
		c6.7-7.4,7-18.6,0.6-26.3c-31.1-37.1-49.8-85.5-49.7-138.5C74.6,93.1,167.7-2.1,280.4-1c111.8,1.1,202.2,95.2,202.2,211.1
		c0,0.6,0,1.2,0,1.7c15.6-1.2,31.3-1.7,47.3-1.7c16,0,31.9,0.6,47.5,1.8c0-0.6,0-1.2,0-1.8C577.4,94.2,667.7,0,779.6-1
		c112.8-1,205.8,94.2,205.9,210.9c0.1,53-18.7,101.4-49.8,138.5c-6.4,7.7-6.2,18.9,0.6,26.3C995.2,439.4,1029.9,518.8,1029.9,604.6z
		"/>
	<path d="M706.8,817.5c-51.8,30.7-112.5,52-177,51.9c-64.4,0-125-21.3-176.7-52c-106-62.8-175.1-164.9-163.8-203.9
		c0.4-1.5,0.9-2.8,1.6-4.1c17.5-34.6,111.1,15,338.8,15.2c228,0.2,321.7-49.3,339.2-14.5c0.6,1.1,1.1,2.3,1.4,3.6
		C882.3,652.3,813.1,754.6,706.8,817.5z"/>
	<ellipse class="st0" cx="287.3" cy="220.3" rx="125.4" ry="129.7"/>
	<ellipse class="st0" cx="772.5" cy="220.3" rx="125.4" ry="129.7"/>
	<ellipse cx="481.7" cy="499" rx="27.3" ry="39.1"/>
	<ellipse cx="578" cy="499" rx="27.3" ry="39.1"/>
	<path class="st2" d="M706.8,817.5c-51.8,30.7-112.5,52-177,51.9c-64.4,0-125-21.3-176.7-52c31.2-24.9,98.7-42.1,176.8-42.1
		C608.1,775.4,675.6,792.6,706.8,817.5z"/>
	<path class="st0" d="M870.3,613.6c-39,49.5-176.7,86-340.4,86c-163.9,0-301.7-36.6-340.6-86.2c0.4-1.5,0.9-2.8,1.6-4.1
		c17.5-34.6,111.1,15,338.8,15.2c228,0.2,321.7-49.3,339.2-14.5C869.5,611.2,870,612.4,870.3,613.6z"/>
	<ellipse cx="287.3" cy="220.3" rx="56.6" ry="58.6"/>
	<ellipse cx="772.5" cy="220.3" rx="56.6" ry="58.6"/>
</g>
</svg>
