<?xml version="1.0" encoding="utf-8"?>
<!-- Generator: Adobe Illustrator 26.2.1, SVG Export Plug-In . SVG Version: 6.00 Build 0)  -->
<svg version="1.1" id="Layer_1" xmlns="http://www.w3.org/2000/svg" xmlns:xlink="http://www.w3.org/1999/xlink" x="0px" y="0px"
	 width="512px" height="512px" viewBox="0 0 512 512" style="enable-background:new 0 0 512 512;" xml:space="preserve">
<style type="text/css">
	.st0{fill:#009B6C;}
	.st1{fill:#FFFFFF;}
	.st2{fill:#E24D4D;}
</style>
<g>
	<path class="st0" d="M512,310.1C512,421.6,397.4,512,256,512C114.6,512,0,421.6,0,310.1c0-43.9,17.8-84.6,48-117.7
		c3.5-3.8,3.6-9.5,0.3-13.5c-15.9-19-25.5-43.8-25.5-70.9C22.9,48.2,70.5-0.5,128.3,0c57.3,0.5,103.5,48.7,103.5,108.1
		c0,0.3,0,0.6,0,0.9c8-0.6,16.1-0.9,24.2-0.9c8.2,0,16.3,0.3,24.3,0.9c0-0.3,0-0.6,0-0.9C280.3,48.7,326.6,0.5,383.9,0
		c57.8-0.5,105.4,48.2,105.4,108c0,27.1-9.6,51.9-25.5,70.9c-3.3,3.9-3.2,9.7,0.3,13.5C494.2,225.5,512,266.1,512,310.1z"/>
	<path d="M346.6,419.1C320,434.8,289,445.7,256,445.7c-32.9,0-64-10.9-90.5-26.6c-54.3-32.2-89.6-84.4-83.9-104.4
		c0.2-0.8,0.5-1.5,0.8-2.1c9-17.7,56.9,7.7,173.5,7.8c116.7,0.1,164.7-25.2,173.7-7.4c0.3,0.6,0.5,1.2,0.7,1.8
		C436.4,334.5,401,386.9,346.6,419.1z"/>
	<ellipse class="st1" cx="131.8" cy="113.3" rx="64.2" ry="66.4"/>
	<ellipse class="st1" cx="380.2" cy="113.3" rx="64.2" ry="66.4"/>
	<ellipse cx="231.3" cy="256" rx="14" ry="20"/>
	<ellipse cx="280.7" cy="256" rx="14" ry="20"/>
	<path class="st2" d="M346.6,419.1C320,434.8,289,445.7,256,445.7c-32.9,0-64-10.9-90.5-26.6c16-12.7,50.5-21.5,90.5-21.5
		C296.1,397.5,330.6,406.3,346.6,419.1z"/>
	<path class="st1" d="M430.3,314.7c-20,25.3-90.5,44-174.3,44c-83.9,0-154.5-18.8-174.4-44.1c0.2-0.8,0.5-1.5,0.8-2.1
		c9-17.7,56.9,7.7,173.5,7.8c116.7,0.1,164.7-25.2,173.7-7.4C429.9,313.4,430.1,314,430.3,314.7z"/>
	<ellipse cx="131.8" cy="113.3" rx="29" ry="30"/>
	<ellipse cx="380.2" cy="113.3" rx="29" ry="30"/>
</g>
</svg>
